<?xml version="1.0" encoding="UTF-8"?>
<svg xmlns="http://www.w3.org/2000/svg" width="2048" height="2048" viewBox="0 0 2048 2048">
  <path d="M 442.00 1929.39 C 401.57 1925.85 371.11 1916.17 344.00 1898.27 C 298.12 1867.97 268.92 1822.89 253.13 1757.96 C 245.26 1725.56 242.86 1703.65 242.26 1658.38 C 241.49 1600.19 244.76 1559.23 253.88 1512.50 C 258.90 1486.78 273.32 1432.88 282.50 1405.50 C 311.17 1319.97 325.06 1286.05 363.54 1207.50 C 407.96 1116.84 474.75 1012.29 547.09 920.15 C 555.02 910.06 563.52 899.19 566.00 896.00 C 588.33 867.20 632.45 816.02 666.43 779.50 C 673.08 772.35 680.28 764.48 682.42 762.00 C 684.57 759.52 696.17 747.04 708.22 734.25 L 730.11 711.00 L 640.87 711.00 L 551.62 711.00 L 548.56 708.80 C 546.88 707.59 534.74 695.33 521.58 681.55 C 508.43 667.77 491.32 649.98 483.57 642.00 C 475.82 634.02 464.64 622.47 458.74 616.32 L 448.00 605.14 L 448.00 596.57 L 448.00 588.00 L 921.00 588.00 C 1181.15 588.00 1394.34 587.99 1394.75 587.99 C 1395.77 587.97 1396.24 599.22 1395.27 600.62 C 1394.85 601.23 1382.12 609.15 1367.00 618.21 C 1329.28 640.82 1292.12 663.88 1275.44 675.03 C 1218.33 713.22 1176.76 743.67 1127.61 783.33 C 1118.69 790.52 1115.82 792.91 1088.36 815.98 C 1058.52 841.03 1030.50 866.16 1001.50 893.87 C 985.50 909.16 948.00 947.23 948.00 948.18 C 948.00 948.63 991.43 949.00 1044.52 949.00 L 1141.04 949.00 L 1142.15 951.43 C 1142.76 952.76 1142.98 954.94 1142.65 956.27 C 1142.30 957.67 1128.26 972.10 1109.27 990.58 C 1091.25 1008.12 1068.62 1030.20 1059.00 1039.65 C 1037.53 1060.72 1032.59 1065.35 1027.60 1069.08 L 1023.70 1072.00 L 928.00 1072.00 L 832.31 1072.00 L 822.89 1082.25 C 817.72 1087.89 810.11 1096.33 805.99 1101.00 C 801.87 1105.67 798.25 1109.72 797.95 1110.00 C 797.25 1110.64 781.91 1129.52 776.00 1137.02 C 773.52 1140.16 761.41 1155.28 749.07 1170.62 C 716.72 1210.83 711.51 1217.70 639.98 1314.50 C 635.91 1320.00 626.92 1332.60 619.99 1342.50 C 613.05 1352.40 604.78 1364.10 601.60 1368.50 C 557.83 1429.10 511.02 1499.08 481.22 1548.50 C 474.92 1558.95 468.08 1570.20 466.01 1573.50 C 441.82 1612.18 413.43 1666.36 406.70 1686.72 C 400.53 1705.38 399.50 1712.16 399.52 1734.00 C 399.54 1749.09 399.96 1755.42 401.38 1762.00 C 407.03 1788.18 417.79 1809.79 432.14 1823.77 C 439.77 1831.20 454.02 1841.17 462.72 1845.14 C 486.93 1856.23 521.20 1858.87 557.00 1852.41 C 586.65 1847.06 644.15 1827.41 701.58 1802.99 C 754.97 1780.29 807.81 1754.98 932.73 1692.26 C 971.36 1672.87 1004.09 1657.00 1005.48 1657.00 C 1008.09 1657.00 1008.50 1658.14 1008.01 1664.00 C 1007.53 1669.73 1006.18 1670.96 977.00 1692.29 C 959.89 1704.79 959.20 1705.29 926.01 1729.33 C 849.38 1784.83 760.79 1838.37 693.96 1869.56 C 651.12 1889.55 622.85 1900.55 588.94 1910.40 C 552.46 1921.01 532.16 1925.46 508.50 1928.03 C 498.36 1929.13 450.25 1930.12 442.00 1929.39 Z M 657.25 1460.22 L 646.00 1459.93 L 646.00 1454.59 C 646.00 1451.26 646.52 1448.81 647.38 1448.10 C 649.40 1446.43 663.94 1437.62 675.50 1431.07 C 714.21 1409.14 762.78 1378.44 804.50 1349.53 C 812.75 1343.81 822.65 1336.98 826.50 1334.34 C 860.30 1311.19 908.53 1274.44 943.48 1245.20 C 951.17 1238.76 959.95 1231.49 962.98 1229.04 C 986.58 1209.96 1026.16 1174.52 1056.78 1145.04 C 1090.71 1112.39 1150.83 1050.56 1175.50 1022.97 C 1177.70 1020.51 1186.04 1011.30 1194.04 1002.50 C 1209.55 985.42 1225.84 966.95 1235.54 955.43 C 1238.82 951.54 1248.05 940.74 1256.05 931.43 C 1318.56 858.69 1392.53 763.11 1459.16 669.00 C 1492.60 621.76 1533.99 560.44 1550.44 533.76 C 1554.26 527.57 1560.73 517.10 1564.83 510.50 C 1580.47 485.28 1595.53 458.70 1613.26 425.00 C 1641.09 372.10 1650.97 330.15 1643.99 294.53 C 1638.35 265.74 1627.81 244.87 1610.34 227.89 C 1596.51 214.45 1581.38 206.13 1561.27 200.89 C 1538.94 195.07 1511.08 195.97 1479.25 203.53 C 1465.10 206.89 1424.93 218.95 1414.50 222.97 C 1411.75 224.03 1402.97 227.20 1395.00 230.03 C 1380.44 235.19 1347.01 248.43 1313.50 262.33 C 1292.34 271.10 1218.67 304.78 1188.18 319.62 C 1176.46 325.33 1166.66 330.00 1166.40 330.00 C 1165.29 330.00 1080.53 372.83 1055.91 385.83 C 1048.44 389.77 1041.39 393.00 1040.24 393.00 C 1037.13 393.00 1035.00 390.31 1035.00 386.36 C 1035.00 379.93 1030.88 383.54 1081.62 345.55 C 1122.49 314.96 1144.56 299.20 1173.77 279.76 C 1188.03 270.27 1201.67 261.30 1204.10 259.83 C 1206.52 258.37 1213.83 253.76 1220.35 249.58 C 1226.86 245.41 1232.41 242.00 1232.66 242.00 C 1232.92 242.00 1234.61 240.88 1236.41 239.50 C 1238.21 238.13 1239.93 237.00 1240.22 237.00 C 1240.51 237.00 1245.87 234.02 1252.12 230.38 C 1258.38 226.74 1267.78 221.50 1273.00 218.72 C 1278.22 215.95 1287.22 211.13 1293.00 208.02 C 1333.18 186.35 1387.35 162.84 1429.00 148.99 C 1477.52 132.87 1512.48 125.85 1559.00 122.90 C 1611.26 119.58 1652.17 126.84 1690.44 146.22 C 1708.90 155.57 1724.30 167.69 1740.44 185.56 C 1756.09 202.89 1762.80 212.76 1776.80 239.00 C 1781.95 248.67 1790.11 271.57 1795.33 291.00 C 1803.58 321.76 1808.69 370.95 1807.64 409.50 C 1806.46 452.95 1802.43 490.94 1794.98 529.00 C 1783.96 585.24 1772.33 628.07 1753.70 681.00 C 1733.18 739.29 1714.01 784.56 1686.14 840.50 C 1660.19 892.58 1625.59 954.36 1603.52 988.00 C 1578.98 1025.41 1558.55 1056.04 1551.50 1066.00 C 1543.98 1076.62 1519.13 1110.28 1515.32 1115.00 C 1514.01 1116.63 1510.48 1121.29 1497.16 1139.00 C 1492.40 1145.33 1487.96 1151.17 1487.29 1152.00 C 1486.63 1152.83 1482.80 1157.58 1478.79 1162.57 C 1474.78 1167.56 1469.84 1173.64 1467.80 1176.07 C 1465.77 1178.51 1459.47 1186.16 1453.80 1193.09 C 1441.28 1208.39 1403.49 1250.36 1385.01 1269.48 C 1377.58 1277.17 1358.56 1296.25 1342.75 1311.89 C 1326.94 1327.53 1314.00 1340.68 1314.00 1341.11 C 1314.00 1341.55 1353.71 1341.89 1402.25 1341.89 L 1490.50 1341.87 L 1543.30 1394.88 L 1596.10 1447.88 L 1595.80 1454.19 L 1595.50 1460.50 L 1132.00 1460.51 C 877.07 1460.51 663.44 1460.38 657.25 1460.22 Z" fill="black" fill-rule="evenodd"/>
</svg>